<svg version="1" xmlns="http://www.w3.org/2000/svg" width="346.667" height="346.667" viewBox="0 0 260.000000 260.000000"><path d="M118 57.7c-23.7 2.8-41.2 8.7-59 20.1C25 99.5 3.1 135.1.4 173.3l-.6 9.4h12.7c8.4 0 12.8-.4 13-1.1.2-.6.6-3.9.9-7.2 3.5-40.7 33.2-76 74.1-87.9 11.2-3.2 17.2-4 30.5-3.9 32.9.2 62.6 14.8 82.5 40.5 9.3 12.1 17.5 30.7 19.2 43.9.3 2.5.7 5.2.9 6 .1.8.3 3.3.3 5.6l.1 4 13.1.1h13.1l-.6-9.1c-.4-5-.9-9.8-1.1-10.6-.2-.8-.6-2.6-.9-4-2.1-12.2-8.6-28.6-16.2-40.7-18.9-30.4-48.5-50.6-85.2-58.5-8.8-1.8-30.2-3-38.2-2.1z"/><path d="M118.8 95.5c-.1.1-2.4.6-5 .9-26.7 3.6-53.3 23.4-66 49.1-4.8 9.6-7.3 18.9-8.4 30.6l-.7 6.6h26.1l.6-6.1c2.7-26.1 22-47.7 48.6-54.6 10.9-2.8 26.8-2.2 36.8 1.3 9.9 3.5 17.3 7.9 24.3 14.4 10.6 9.9 18.1 24.7 19.5 38.5l.6 6.5H221v-3.8c0-5.3-2.4-17.3-5-24.8-7.3-20.8-23.9-39.2-44.8-49.6-13-6.4-25.9-9.3-41.4-9.3-5.8 0-10.8.1-11 .3z"/><path d="M122.6 133.2c-11.7 1.5-21.5 6.5-30.2 15.4-8.1 8.2-12.7 17.7-14 29l-.6 5.1h12.6c7 0 12.8-.3 13.1-.6.2-.4.6-2 .9-3.5 2.1-11.4 12.9-20.7 24.4-20.8 13.5-.1 23.4 7.4 26.5 19.9l1.2 4.8 12.9.1 12.8.2-.6-5.2c-1.3-11.6-5.9-20.9-14.6-29.6-11.7-11.7-27.7-17-44.4-14.8z"/></svg>